<svg width="18" height="18" viewBox="0 0 18 18" fill="none" xmlns="http://www.w3.org/2000/svg">
<path d="M8.99983 9C11.529 9 13.5792 7.20914 13.5792 5C13.5792 2.79086 11.529 1 8.99983 1C6.47069 1 4.42041 2.79086 4.42041 5C4.42041 7.20914 6.47069 9 8.99983 9Z" stroke="black" stroke-width="1.5"/>
<path d="M13.5794 10.6H13.9015C15.2872 10.6 16.456 11.5013 16.6279 12.7024L16.9856 15.2016C17.1222 16.1565 16.2697 17 15.1679 17H2.83203C1.73023 17 0.877755 16.1565 1.01441 15.2016L1.37207 12.7024C1.54394 11.5013 2.7128 10.6 4.09851 10.6H4.42058" stroke="black" stroke-width="1.5" stroke-linecap="round" stroke-linejoin="round"/>
</svg>
